<svg width="1332" height="331" fill="none" xmlns="http://www.w3.org/2000/svg"><path d="M4.375 157V11.546h102.273v31.818H43.864v25h56.534v31.818H43.864V157H4.375Zm135.419 1.705c-6.96 0-13.115-1.137-18.466-3.41-5.303-2.32-9.47-5.823-12.5-10.511-3.03-4.687-4.545-10.653-4.545-17.898 0-5.966 1.018-11.056 3.054-15.27 2.036-4.261 4.877-7.741 8.522-10.44 3.646-2.699 7.884-4.758 12.713-6.179 4.877-1.42 10.133-2.344 15.767-2.77 6.108-.473 11.009-1.041 14.702-1.704 3.741-.71 6.44-1.681 8.097-2.912 1.657-1.279 2.486-2.96 2.486-5.043v-.284c0-2.84-1.089-5.019-3.267-6.534-2.178-1.515-4.972-2.273-8.381-2.273-3.741 0-6.795.829-9.162 2.486-2.32 1.61-3.717 4.096-4.19 7.458h-36.08c.474-6.63 2.581-12.737 6.321-18.324 3.788-5.635 9.304-10.133 16.548-13.495 7.245-3.409 16.288-5.113 27.131-5.113 7.813 0 14.82.923 21.023 2.77 6.202 1.799 11.482 4.332 15.838 7.599 4.356 3.22 7.67 7.008 9.943 11.364 2.32 4.308 3.48 8.996 3.48 14.062V157H172.18v-15.341h-.852c-2.178 4.072-4.829 7.363-7.954 9.872-3.078 2.51-6.606 4.333-10.583 5.469-3.93 1.136-8.262 1.705-12.997 1.705Zm12.784-24.716c2.983 0 5.777-.616 8.381-1.847 2.651-1.231 4.806-3.007 6.463-5.327s2.486-5.137 2.486-8.451v-9.091a45.566 45.566 0 0 1-3.338 1.207 49.992 49.992 0 0 1-3.694 1.065c-1.278.332-2.651.64-4.119.924-1.42.284-2.912.544-4.474.781-3.031.473-5.516 1.255-7.458 2.344-1.894 1.041-3.314 2.344-4.261 3.906-.9 1.515-1.35 3.22-1.35 5.114 0 3.03 1.066 5.35 3.197 6.96 2.13 1.61 4.853 2.415 8.167 2.415Zm171.019-86.08L286.95 157h-45.455L204.847 47.91h41.193l17.614 72.158h1.136l17.614-72.159h41.193Zm50.387 111.08c-11.837 0-21.969-2.344-30.397-7.032-8.428-4.734-14.891-11.316-19.39-19.744-4.498-8.475-6.747-18.3-6.747-29.474 0-11.175 2.249-20.976 6.747-29.404 4.499-8.475 10.962-15.057 19.39-19.744 8.428-4.735 18.56-7.102 30.397-7.102s21.97 2.367 30.398 7.102c8.428 4.687 14.891 11.269 19.389 19.744 4.498 8.428 6.747 18.23 6.747 29.404s-2.249 20.999-6.747 29.474c-4.498 8.428-10.961 15.01-19.389 19.744-8.428 4.688-18.561 7.032-30.398 7.032Zm.284-28.978c3.315 0 6.179-1.112 8.594-3.338 2.415-2.225 4.285-5.397 5.611-9.517 1.326-4.119 1.989-9.02 1.989-14.701 0-5.73-.663-10.63-1.989-14.702-1.326-4.12-3.196-7.292-5.611-9.517-2.415-2.226-5.279-3.338-8.594-3.338-3.503 0-6.51 1.112-9.019 3.338-2.51 2.225-4.428 5.397-5.753 9.517-1.326 4.072-1.989 8.972-1.989 14.702 0 5.681.663 10.582 1.989 14.701 1.325 4.12 3.243 7.292 5.753 9.517 2.509 2.226 5.516 3.338 9.019 3.338ZM436.428 157V47.91h38.068v20.738h1.136c1.989-7.67 5.137-13.281 9.446-16.833 4.356-3.55 9.446-5.326 15.27-5.326 1.705 0 3.385.142 5.043.426 1.704.236 3.338.592 4.9 1.065v33.452c-1.941-.663-4.332-1.16-7.173-1.492-2.841-.331-5.279-.497-7.315-.497-3.836 0-7.292.876-10.37 2.628-3.03 1.705-5.421 4.12-7.173 7.244-1.752 3.078-2.628 6.7-2.628 10.867V157h-39.204Zm76.718 0V47.91h39.205V157h-39.205Zm19.603-120.454c-5.303 0-9.849-1.752-13.637-5.256-3.788-3.504-5.682-7.718-5.682-12.642 0-4.925 1.894-9.139 5.682-12.642C522.9 2.502 527.446.75 532.749.75c5.35 0 9.895 1.752 13.636 5.256 3.788 3.503 5.682 7.717 5.682 12.642 0 4.924-1.894 9.138-5.682 12.642-3.741 3.504-8.286 5.255-13.636 5.255Zm94.634 11.363v28.41h-71.875v-28.41h71.875Zm-57.955-26.136h39.205v100.142c0 1.515.26 2.793.781 3.835.521.994 1.326 1.752 2.415 2.273 1.089.473 2.486.71 4.19.71 1.184 0 2.557-.142 4.119-.426 1.61-.284 2.794-.521 3.552-.71l5.681 27.556c-1.751.521-4.261 1.16-7.528 1.918-3.22.758-7.055 1.255-11.506 1.491-8.996.474-16.548-.449-22.656-2.769-6.108-2.368-10.701-6.085-13.778-11.151-3.078-5.066-4.569-11.411-4.475-19.034V21.773Zm115.054 137.216c-11.648 0-21.686-2.226-30.114-6.677-8.381-4.498-14.844-10.937-19.389-19.318-4.498-8.428-6.747-18.513-6.747-30.255 0-11.27 2.272-21.118 6.818-29.546 4.545-8.428 10.961-14.986 19.247-19.673 8.286-4.688 18.063-7.031 29.332-7.031 8.239 0 15.696 1.278 22.372 3.835 6.677 2.557 12.382 6.273 17.117 11.15 4.735 4.83 8.381 10.701 10.937 17.614 2.557 6.913 3.836 14.702 3.836 23.367v9.09h-97.444v-21.59h61.364c-.047-3.126-.852-5.872-2.415-8.24-1.515-2.414-3.575-4.284-6.179-5.61-2.556-1.373-5.468-2.06-8.735-2.06-3.173 0-6.085.687-8.736 2.06-2.652 1.326-4.782 3.172-6.392 5.54-1.563 2.367-2.391 5.137-2.486 8.31v23.295c0 3.504.734 6.629 2.202 9.375 1.467 2.746 3.574 4.901 6.321 6.463 2.746 1.563 6.06 2.344 9.943 2.344 2.699 0 5.161-.379 7.386-1.137 2.273-.757 4.214-1.846 5.824-3.267a13.269 13.269 0 0 0 3.551-5.255h35.796c-1.231 7.575-4.143 14.157-8.736 19.744-4.593 5.54-10.677 9.849-18.253 12.926-7.528 3.03-16.335 4.546-26.42 4.546Zm88.682-147.444h49.148l33.807 82.387h1.704l33.807-82.386h49.148V157h-38.637V72.91h-1.136l-32.386 82.954h-23.296l-32.386-83.523H811.8V157h-38.636V11.546Zm247.636 97.728V47.909h39.2V157h-37.21v-20.739h-1.14c-2.37 6.961-6.51 12.406-12.43 16.336-5.92 3.882-12.948 5.823-21.091 5.823-7.624 0-14.3-1.751-20.029-5.255-5.682-3.504-10.109-8.334-13.281-14.489-3.125-6.155-4.711-13.21-4.759-21.165V47.909h39.205v61.364c.047 5.397 1.42 9.635 4.119 12.713 2.746 3.077 6.582 4.616 11.506 4.616 3.27 0 6.08-.686 8.45-2.059 2.42-1.421 4.26-3.409 5.54-5.966 1.33-2.604 1.97-5.706 1.92-9.304Zm148.86-25.852h-36.08c-.19-2.226-.97-4.144-2.34-5.753-1.38-1.61-3.15-2.841-5.33-3.694-2.13-.9-4.5-1.349-7.1-1.349-3.36 0-6.25.615-8.67 1.847-2.41 1.23-3.6 2.983-3.55 5.255-.05 1.61.64 3.102 2.06 4.475 1.47 1.373 4.29 2.438 8.45 3.196l22.16 3.977c11.18 2.036 19.49 5.469 24.93 10.298 5.49 4.782 8.26 11.198 8.31 19.247-.05 7.766-2.37 14.513-6.96 20.242-4.55 5.682-10.77 10.085-18.68 13.21-7.86 3.078-16.83 4.617-26.92 4.617-16.66 0-29.71-3.409-39.13-10.228-9.38-6.818-14.61-15.814-15.7-26.988h38.92c.52 3.456 2.23 6.131 5.12 8.025 2.93 1.847 6.63 2.77 11.08 2.77 3.6 0 6.56-.615 8.88-1.846 2.36-1.231 3.57-2.983 3.62-5.256-.05-2.083-1.09-3.741-3.13-4.972-1.99-1.231-5.11-2.225-9.37-2.983l-19.32-3.409c-11.13-1.941-19.46-5.634-25-11.079-5.54-5.445-8.29-12.453-8.24-21.023-.05-7.576 1.94-13.992 5.97-19.247 4.07-5.303 9.87-9.328 17.4-12.074 7.57-2.794 16.55-4.19 26.91-4.19 15.77 0 28.2 3.267 37.29 9.8 9.14 6.535 13.95 15.578 14.42 27.132Zm7.86 73.579V47.91h39.21V157h-39.21Zm19.6-120.454c-5.3 0-9.84-1.752-13.63-5.256-3.79-3.504-5.68-7.718-5.68-12.642 0-4.925 1.89-9.139 5.68-12.642 3.79-3.504 8.33-5.256 13.63-5.256 5.35 0 9.9 1.752 13.64 5.256 3.79 3.503 5.68 7.717 5.68 12.642 0 4.924-1.89 9.138-5.68 12.642-3.74 3.504-8.29 5.255-13.64 5.255Zm82.14 122.443c-11.84 0-21.97-2.344-30.4-7.032-8.43-4.734-14.89-11.316-19.39-19.744-4.5-8.475-6.75-18.3-6.75-29.474 0-11.175 2.25-20.976 6.75-29.404 4.5-8.475 10.96-15.057 19.39-19.744 8.43-4.735 18.56-7.102 30.4-7.102 10.7 0 19.96 1.94 27.77 5.824 7.86 3.835 13.94 9.28 18.25 16.335 4.31 7.007 6.49 15.246 6.53 24.716h-36.36c-.52-5.73-2.18-10.086-4.97-13.069-2.75-3.03-6.3-4.545-10.65-4.545-3.41 0-6.4.994-8.95 2.983-2.56 1.941-4.55 4.9-5.97 8.878-1.42 3.93-2.13 8.878-2.13 14.844 0 5.965.71 10.937 2.13 14.914 1.42 3.93 3.41 6.89 5.97 8.878 2.55 1.941 5.54 2.912 8.95 2.912 2.88 0 5.44-.663 7.67-1.989 2.22-1.373 4.02-3.361 5.39-5.965 1.42-2.652 2.28-5.872 2.56-9.66h36.36c-.14 9.612-2.34 17.993-6.6 25.143-4.26 7.102-10.3 12.594-18.11 16.477-7.77 3.882-17.05 5.824-27.84 5.824Zm-1221.76 170c-11.837 0-21.97-2.344-30.398-7.032-8.428-4.734-14.89-11.316-19.389-19.744-4.498-8.475-6.747-18.3-6.747-29.474 0-11.175 2.249-20.976 6.747-29.404 4.498-8.475 10.961-15.057 19.39-19.744 8.427-4.735 18.56-7.102 30.397-7.102s21.97 2.367 30.398 7.102c8.428 4.687 14.891 11.269 19.389 19.744 4.498 8.428 6.747 18.229 6.747 29.404 0 11.174-2.249 20.999-6.747 29.474-4.498 8.428-10.961 15.01-19.39 19.744-8.427 4.688-18.56 7.032-30.397 7.032Zm.284-28.978c3.315 0 6.18-1.112 8.594-3.338 2.415-2.225 4.285-5.397 5.61-9.517 1.326-4.119 1.99-9.02 1.99-14.701 0-5.73-.664-10.63-1.99-14.702-1.325-4.119-3.195-7.292-5.61-9.517-2.415-2.226-5.28-3.338-8.594-3.338-3.504 0-6.51 1.112-9.02 3.338-2.51 2.225-4.427 5.398-5.753 9.517-1.325 4.072-1.988 8.972-1.988 14.702 0 5.681.663 10.582 1.988 14.701 1.326 4.12 3.244 7.292 5.753 9.517 2.51 2.226 5.516 3.338 9.02 3.338Zm127.5-82.102v28.409h-73.011v-28.409h73.011ZM126.193 327V214.784c0-8.996 1.61-16.454 4.83-22.372 3.219-5.919 7.765-10.346 13.636-13.281 5.871-2.936 12.784-4.404 20.739-4.404 4.971 0 9.801.379 14.488 1.137 4.735.757 8.239 1.42 10.512 1.988l-5.682 28.125c-1.421-.426-3.078-.757-4.972-.994-1.894-.284-3.551-.426-4.971-.426-3.693 0-6.179.781-7.458 2.344-1.278 1.562-1.917 3.622-1.917 6.179V327h-39.205Zm93.779 0v-28.409l54.261-44.886c3.598-2.983 6.676-5.777 9.233-8.381 2.604-2.652 4.593-5.374 5.966-8.168 1.42-2.793 2.13-5.895 2.13-9.304 0-3.74-.804-6.936-2.414-9.588-1.563-2.651-3.741-4.687-6.534-6.108-2.794-1.468-6.014-2.201-9.659-2.201-3.646 0-6.866.733-9.66 2.201-2.746 1.468-4.876 3.622-6.392 6.463-1.515 2.841-2.272 6.298-2.272 10.37h-37.5c0-10.228 2.296-19.034 6.889-26.421 4.593-7.386 11.079-13.068 19.46-17.045 8.381-3.978 18.206-5.966 29.475-5.966 11.647 0 21.733 1.87 30.255 5.611 8.57 3.693 15.175 8.901 19.816 15.625 4.687 6.723 7.031 14.607 7.031 23.65 0 5.587-1.16 11.151-3.48 16.691-2.32 5.492-6.487 11.576-12.5 18.252-6.014 6.676-14.56 14.631-25.639 23.864l-13.637 11.364v.852h56.818V327H219.972Zm182.649 3.977c-13.21-.047-24.621-3.101-34.233-9.162-9.612-6.06-17.022-14.796-22.23-26.207-5.209-11.411-7.789-25.095-7.742-41.051.048-16.004 2.652-29.593 7.813-40.767 5.208-11.174 12.594-19.674 22.159-25.497 9.612-5.824 21.023-8.736 34.233-8.736 13.21 0 24.621 2.935 34.233 8.807 9.611 5.823 17.021 14.323 22.23 25.497 5.208 11.174 7.789 24.739 7.741 40.696 0 16.051-2.604 29.782-7.812 41.193-5.209 11.411-12.619 20.147-22.23 26.207-9.565 6.014-20.952 9.02-34.162 9.02Zm0-32.102c6.818 0 12.405-3.551 16.761-10.653 4.404-7.15 6.582-18.372 6.534-33.665 0-9.991-.994-18.158-2.983-24.503-1.988-6.345-4.735-11.032-8.238-14.063-3.504-3.077-7.529-4.616-12.074-4.616-6.818 0-12.382 3.456-16.691 10.369-4.308 6.913-6.51 17.851-6.605 32.813-.047 10.18.924 18.56 2.912 25.142 1.989 6.534 4.735 11.363 8.239 14.489 3.551 3.124 7.599 4.687 12.145 4.687ZM475.362 327v-28.409l54.262-44.886c3.598-2.983 6.676-5.777 9.233-8.381 2.604-2.652 4.592-5.374 5.965-8.168 1.421-2.793 2.131-5.895 2.131-9.304 0-3.74-.805-6.936-2.415-9.588-1.562-2.651-3.74-4.687-6.534-6.108-2.793-1.468-6.013-2.201-9.659-2.201-3.646 0-6.865.733-9.659 2.201-2.746 1.468-4.877 3.622-6.392 6.463-1.515 2.841-2.273 6.298-2.273 10.37h-37.5c0-10.228 2.297-19.034 6.89-26.421 4.592-7.386 11.079-13.068 19.46-17.045 8.38-3.978 18.205-5.966 29.474-5.966 11.648 0 21.733 1.87 30.256 5.611 8.57 3.693 15.175 8.901 19.815 15.625 4.688 6.723 7.031 14.607 7.031 23.65 0 5.587-1.16 11.151-3.48 16.691-2.32 5.492-6.486 11.576-12.5 18.252-6.013 6.676-14.559 14.631-25.639 23.864l-13.636 11.364v.852h56.818V327H475.362Zm114.752-22.727v-30.682l58.522-92.046h27.841v40.91h-15.909l-31.534 50v1.136h86.364v30.682H590.114ZM660.852 327v-32.102l.853-13.353v-100h36.931V327h-37.784Z" fill="#000"/></svg>